<svg width="512" height="512" viewBox="0 0 512 512" fill="none" xmlns="http://www.w3.org/2000/svg">
<circle cx="256" cy="256" r="205" fill="url(#paint0_linear_2_112)" stroke="white" stroke-width="10"/>
<path d="M291.286 158.972C306.878 147.514 318.029 141.493 342.568 131.545C342.039 158.019 340.399 170.584 335.265 189.24C309.69 211.286 296.926 225.435 276.515 253.34C264.232 270.771 259.89 280.803 256.49 299.143C249.155 302.248 245.792 304.638 240.807 309.779C255.01 306.899 261.24 307.299 269.567 311.279C274.116 309.574 275.617 307.262 276.646 300.994C297.655 326.363 311.061 338.823 337.665 358.146C323.246 359.892 314.349 359.889 295.534 356.329C292.924 365.62 294.051 372.876 297.47 386.931C281.956 377.78 273.868 370.199 260.477 352.586C254.076 358.073 253.642 362.517 254.103 371.72C242.818 359.512 237.72 350.381 229.975 331.594C219.419 332.578 214.044 334.486 205.711 341.028C195.697 354.177 193.01 360.798 190.683 371.977C181.196 374.169 175.146 375.769 169.501 383.009C174.248 375.151 173.581 368.928 172.24 359.283C181.85 353.117 187.075 348.243 195.78 334.193C198.914 324.074 198.777 318.372 195.926 308.16C175.612 307.636 165.263 306.136 149.829 299.955C158.589 297.098 162.586 295.106 165.424 287.168C144.19 280.951 134.221 276.104 120.132 264.881C134.481 263.054 141.661 261.516 149.408 255.76C139.362 239.457 136.182 231.148 132.663 217.057C160.213 235.004 176.639 243.076 207.839 253.638C202.352 256.838 200.729 259.066 200.76 263.924C207.452 270.281 210.051 275.956 212.433 290.251C215.455 283.759 216.486 279.765 216.767 271.804C232.683 262.078 240.502 254.439 252.397 236.741C271.171 207.709 279.828 190.734 291.286 158.972Z" fill="white"/>
<defs>
<linearGradient id="paint0_linear_2_112" x1="256" y1="56" x2="256" y2="456" gradientUnits="userSpaceOnUse">
<stop stop-color="#0A1B40"/>
<stop offset="0.5" stop-color="#13384F"/>
<stop offset="1" stop-color="#1387B7"/>
</linearGradient>
</defs>
</svg>
